<svg width="998" height="998" viewBox="0 0 998 998" fill="none" xmlns="http://www.w3.org/2000/svg">
<path d="M748.359 0.0950012H249.643C112.243 0.0950012 0.457001 111.505 0.457001 248.443V749.553C0.457001 886.482 112.243 997.904 249.643 997.904H748.359C885.759 997.904 997.542 886.481 997.542 749.553V248.442C997.542 111.505 885.759 0.0960011 748.359 0.0960011V0.0950012ZM905.254 749.551C905.254 835.765 834.874 905.919 748.36 905.919H249.644C163.13 905.919 92.749 835.765 92.749 749.551V425.903H289.895C275.502 456.346 267.407 490.307 267.407 526.121C267.407 656.204 373.587 762.018 504.103 762.018C634.616 762.018 740.798 656.204 740.798 526.121C740.798 490.307 732.704 456.345 718.308 425.903H905.253V749.551H905.254ZM405.845 526.123C405.845 472.133 449.922 428.2 504.104 428.2C558.288 428.2 602.362 472.134 602.362 526.123C602.362 580.124 558.288 624.049 504.104 624.049C449.923 624.048 405.845 580.124 405.845 526.123V526.123ZM905.254 333.924H641.08C602.379 306.456 555.126 290.229 504.104 290.229C453.082 290.229 405.823 306.456 367.131 333.924H92.749V248.443C92.749 162.22 163.13 92.076 249.644 92.076H748.36C834.874 92.076 905.254 162.22 905.254 248.443V333.924H905.255H905.254ZM805.248 147.861H719.698C704.466 147.861 692.011 160.279 692.011 175.455V260.721C692.011 275.896 704.465 288.315 719.698 288.315H805.248C820.479 288.315 832.935 275.896 832.935 260.721V175.455C832.935 160.279 820.48 147.861 805.248 147.861Z" fill="black"/>
</svg>
